<svg width="958" height="993" viewBox="0 0 958 993" fill="none" xmlns="http://www.w3.org/2000/svg">
<mask id="path-1-inside-1_2032_781" fill="white">
<path fill-rule="evenodd" clip-rule="evenodd" d="M168.337 934.891C168.337 966.575 194.022 992.26 225.706 992.26H434.676C468.365 992.26 495.676 964.949 495.676 931.26V760.792C495.676 727.102 522.986 699.792 556.676 699.792H645.028C678.717 699.792 706.028 672.481 706.028 638.792V475.073C706.028 441.384 678.717 414.073 645.028 414.073H506.362C478.095 414.073 455.18 391.158 455.18 362.891C455.18 334.625 478.095 311.71 506.362 311.71H659.651C693.341 311.71 720.651 284.399 720.651 250.71V45.3706C720.651 11.6812 693.34 -15.6294 659.651 -15.6294H454.312C420.623 -15.6294 393.312 11.6812 393.312 45.3706V195.591C393.312 229.28 366.002 256.591 332.312 256.591H266.458C232.768 256.591 205.458 229.28 205.458 195.591V86.9911C205.458 53.3017 178.147 25.9911 144.458 25.9911H-60.8811C-94.5704 25.9911 -121.881 53.3018 -121.881 86.9911V313.397C-121.881 335.451 -104.002 353.33 -81.948 353.33C-59.8936 353.33 -42.0149 371.209 -42.0149 393.263V491.69C-42.0149 523.995 -68.2034 550.183 -100.508 550.183C-132.813 550.183 -159.002 576.372 -159.002 608.677V816.522C-159.002 850.212 -131.691 877.522 -98.002 877.522H110.968C142.652 877.522 168.337 903.207 168.337 934.891ZM168.337 652.547C168.337 659.381 173.877 664.921 180.711 664.921H359.309C392.999 664.921 420.309 637.61 420.309 603.921V589.811C420.309 556.121 392.999 528.811 359.309 528.811H341.005C310.253 528.811 285.324 553.74 285.324 584.492C285.324 615.244 260.395 640.173 229.643 640.173H180.711C173.877 640.173 168.337 645.713 168.337 652.547ZM958 472.31C958 506 930.689 533.31 897 533.31H810.898C777.209 533.31 749.898 506 749.898 472.31V386.208C749.898 352.519 777.209 325.208 810.898 325.208H897C930.689 325.208 958 352.519 958 386.208V472.31ZM524.923 868.267C524.923 901.956 552.233 929.267 585.923 929.267H672.025C705.714 929.267 733.025 901.956 733.025 868.267V782.164C733.025 748.475 705.714 721.164 672.025 721.164H585.923C552.233 721.164 524.923 748.475 524.923 782.164V868.267Z"/>
</mask>
<path d="M434.676 991.26H225.706V993.26H434.676V991.26ZM494.676 760.792V931.26H496.676V760.792H494.676ZM645.028 698.792H556.676V700.792H645.028V698.792ZM705.028 475.073V638.792H707.028V475.073H705.028ZM506.362 415.073H645.028V413.073H506.362V415.073ZM659.651 310.71H506.362V312.71H659.651V310.71ZM719.651 45.3706V250.71H721.651V45.3706H719.651ZM454.312 -14.6294H659.651V-16.6294H454.312V-14.6294ZM394.312 195.591V45.3706H392.312V195.591H394.312ZM266.458 257.591H332.312V255.591H266.458V257.591ZM204.458 86.9911V195.591H206.458V86.9911H204.458ZM-60.8811 26.9911H144.458V24.9911H-60.8811V26.9911ZM-120.881 313.397V86.9911H-122.881V313.397H-120.881ZM-41.0149 491.69V393.263H-43.0149V491.69H-41.0149ZM-158.002 816.522V608.677H-160.002V816.522H-158.002ZM110.968 876.522H-98.002V878.522H110.968V876.522ZM180.711 665.921H359.309V663.921H180.711V665.921ZM421.309 603.921V589.811H419.309V603.921H421.309ZM359.309 527.811H341.005V529.811H359.309V527.811ZM229.643 639.173H180.711V641.173H229.643V639.173ZM810.898 534.31H897V532.31H810.898V534.31ZM748.898 386.208V472.31H750.898V386.208H748.898ZM897 324.208H810.898V326.208H897V324.208ZM959 472.31V386.208H957V472.31H959ZM672.025 928.267H585.923V930.267H672.025V928.267ZM732.025 782.164V868.267H734.025V782.164H732.025ZM585.923 722.164H672.025V720.164H585.923V722.164ZM525.923 868.267V782.164H523.923V868.267H525.923ZM585.923 720.164C551.681 720.164 523.923 747.923 523.923 782.164H525.923C525.923 749.027 552.786 722.164 585.923 722.164V720.164ZM734.025 782.164C734.025 747.923 706.266 720.164 672.025 720.164V722.164C705.162 722.164 732.025 749.027 732.025 782.164H734.025ZM585.923 928.267C552.786 928.267 525.923 901.404 525.923 868.267H523.923C523.923 902.508 551.681 930.267 585.923 930.267V928.267ZM672.025 930.267C706.266 930.267 734.025 902.508 734.025 868.267H732.025C732.025 901.404 705.162 928.267 672.025 928.267V930.267ZM897 326.208C930.137 326.208 957 353.071 957 386.208H959C959 351.966 931.242 324.208 897 324.208V326.208ZM750.898 386.208C750.898 353.071 777.761 326.208 810.898 326.208V324.208C776.656 324.208 748.898 351.966 748.898 386.208H750.898ZM897 534.31C931.242 534.31 959 506.552 959 472.31H957C957 505.447 930.137 532.31 897 532.31V534.31ZM810.898 532.31C777.761 532.31 750.898 505.447 750.898 472.31H748.898C748.898 506.552 776.656 534.31 810.898 534.31V532.31ZM180.711 639.173C173.325 639.173 167.337 645.161 167.337 652.547L169.337 652.547C169.337 646.266 174.429 641.173 180.711 641.173V639.173ZM284.324 584.492C284.324 614.692 259.842 639.173 229.643 639.173V641.173C260.947 641.173 286.324 615.796 286.324 584.492H284.324ZM341.005 527.811C309.701 527.811 284.324 553.188 284.324 584.492H286.324C286.324 554.292 310.806 529.811 341.005 529.811V527.811ZM421.309 589.811C421.309 555.569 393.551 527.811 359.309 527.811V529.811C392.446 529.811 419.309 556.674 419.309 589.811H421.309ZM359.309 665.921C393.551 665.921 421.309 638.162 421.309 603.921H419.309C419.309 637.058 392.446 663.921 359.309 663.921V665.921ZM180.711 663.921C174.429 663.921 169.337 658.829 169.337 652.547L167.337 652.547C167.337 659.933 173.325 665.921 180.711 665.921V663.921ZM110.968 878.522C142.1 878.522 167.337 903.759 167.337 934.891H169.337C169.337 902.655 143.204 876.522 110.968 876.522V878.522ZM-160.002 816.522C-160.002 850.764 -132.244 878.522 -98.002 878.522V876.522C-131.139 876.522 -158.002 849.659 -158.002 816.522H-160.002ZM-100.508 549.183C-133.366 549.183 -160.002 575.819 -160.002 608.677H-158.002C-158.002 576.924 -132.261 551.183 -100.508 551.183V549.183ZM-43.0149 491.69C-43.0149 523.443 -68.7556 549.183 -100.508 549.183V551.183C-67.651 551.183 -41.0149 524.547 -41.0149 491.69H-43.0149ZM-81.948 354.33C-60.4459 354.33 -43.0149 371.761 -43.0149 393.263H-41.0149C-41.0149 370.656 -59.3412 352.33 -81.948 352.33V354.33ZM-122.881 313.397C-122.881 336.004 -104.555 354.33 -81.948 354.33V352.33C-103.45 352.33 -120.881 334.899 -120.881 313.397H-122.881ZM-60.8811 24.9911C-95.1228 24.9911 -122.881 52.7495 -122.881 86.9911H-120.881C-120.881 53.854 -94.0182 26.9911 -60.8811 26.9911V24.9911ZM206.458 86.9911C206.458 52.7495 178.7 24.9911 144.458 24.9911V26.9911C177.595 26.9911 204.458 53.854 204.458 86.9911H206.458ZM266.458 255.591C233.321 255.591 206.458 228.728 206.458 195.591H204.458C204.458 229.832 232.216 257.591 266.458 257.591V255.591ZM392.312 195.591C392.312 228.728 365.449 255.591 332.312 255.591V257.591C366.554 257.591 394.312 229.832 394.312 195.591H392.312ZM454.312 -16.6294C420.071 -16.6294 392.312 11.1289 392.312 45.3706H394.312C394.312 12.2335 421.175 -14.6294 454.312 -14.6294V-16.6294ZM721.651 45.3706C721.651 11.129 693.893 -16.6294 659.651 -16.6294V-14.6294C692.788 -14.6294 719.651 12.2335 719.651 45.3706H721.651ZM659.651 312.71C693.893 312.71 721.651 284.951 721.651 250.71H719.651C719.651 283.847 692.788 310.71 659.651 310.71V312.71ZM456.18 362.891C456.18 335.177 478.648 312.71 506.362 312.71V310.71C477.543 310.71 454.18 334.072 454.18 362.891H456.18ZM506.362 413.073C478.648 413.073 456.18 390.606 456.18 362.891H454.18C454.18 391.711 477.543 415.073 506.362 415.073V413.073ZM707.028 475.073C707.028 440.832 679.269 413.073 645.028 413.073V415.073C678.165 415.073 705.028 441.936 705.028 475.073H707.028ZM645.028 700.792C679.269 700.792 707.028 673.034 707.028 638.792H705.028C705.028 671.929 678.165 698.792 645.028 698.792V700.792ZM496.676 760.792C496.676 727.655 523.539 700.792 556.676 700.792V698.792C522.434 698.792 494.676 726.55 494.676 760.792H496.676ZM225.706 991.26C194.574 991.26 169.337 966.023 169.337 934.891H167.337C167.337 967.127 193.469 993.26 225.706 993.26V991.26ZM434.676 993.26C468.918 993.26 496.676 965.501 496.676 931.26H494.676C494.676 964.397 467.813 991.26 434.676 991.26V993.26Z" fill="url(#paint0_linear_2032_781)" mask="url(#path-1-inside-1_2032_781)"/>
<defs>
<linearGradient id="paint0_linear_2032_781" x1="417.651" y1="857.408" x2="417.651" y2="124.217" gradientUnits="userSpaceOnUse">
<stop stop-color="#7579FF"/>
<stop offset="1" stop-color="#1B1F3B"/>
</linearGradient>
</defs>
</svg>
