<svg width="962" height="1080" viewBox="0 0 962 1080" fill="none" xmlns="http://www.w3.org/2000/svg">
<mask id="path-1-inside-1_2032_772" fill="white">
<path fill-rule="evenodd" clip-rule="evenodd" d="M322.842 1019C322.842 1052.69 295.531 1080 261.842 1080H61.0022C27.3129 1080 0.00219727 1052.69 0.00219727 1019V818.161C0.00219727 784.471 27.3127 757.161 61.0021 757.161H261.842C295.531 757.161 322.842 784.471 322.842 818.16V1019ZM1102.38 669.677C1102.38 635.988 1129.69 608.677 1163.38 608.677L1237.11 608.677C1270.8 608.677 1298.11 581.366 1298.11 547.677V320.965C1298.11 287.276 1270.8 259.965 1237.11 259.965H1097.01C1063.32 259.965 1036.01 232.655 1036.01 198.965V6C1036.01 -27.6893 1008.7 -55 975.013 -55H774.174C740.484 -55 713.174 -27.6893 713.174 6V146.096C713.174 179.786 685.863 207.096 652.174 207.096H576.195C542.506 207.096 515.195 234.407 515.195 268.096V412.692C515.195 446.381 487.885 473.692 454.195 473.692H398.465C364.776 473.692 337.465 501.002 337.465 534.692V750.155C337.465 783.844 364.776 811.155 398.465 811.155H613.928C647.617 811.155 674.928 783.844 674.928 750.155V615.683C674.928 581.993 702.238 554.683 735.928 554.683H801.782C835.471 554.683 862.782 527.372 862.782 493.683V311.147C862.782 287.229 882.172 267.839 906.09 267.839C930.008 267.839 949.398 287.229 949.398 311.147V565.369C949.398 589.287 930.008 608.677 906.09 608.677C882.172 608.677 862.782 628.066 862.782 651.985V787.276C862.782 820.965 890.093 848.276 923.782 848.276H1041.38C1075.07 848.276 1102.38 820.965 1102.38 787.276V669.677ZM176.608 206.839C176.608 240.529 203.918 267.839 237.608 267.839H438.447C472.137 267.839 499.447 240.529 499.447 206.839V6C499.447 -27.6893 472.137 -55 438.447 -55H237.608C203.918 -55 176.608 -27.6895 176.608 5.99988V206.839ZM646.806 958.257C646.806 991.946 674.117 1019.26 707.806 1019.26H789.409C823.098 1019.26 850.409 991.946 850.409 958.257V876.654C850.409 842.965 823.098 815.654 789.408 815.654H707.806C674.117 815.654 646.806 842.965 646.806 876.654V958.257Z"/>
</mask>
<path d="M61.0022 1081H261.842V1079H61.0022V1081ZM-0.997803 818.161V1019H1.0022V818.161H-0.997803ZM261.842 756.161H61.0021V758.161H261.842V756.161ZM323.842 1019V818.16H321.842V1019H323.842ZM1237.11 607.677L1163.38 607.677V609.677L1237.11 609.677V607.677ZM1297.11 320.965V547.677H1299.11V320.965H1297.11ZM1097.01 260.965H1237.11V258.965H1097.01V260.965ZM1035.01 6V198.965H1037.01V6H1035.01ZM774.174 -54H975.013V-56H774.174V-54ZM714.174 146.096V6H712.174V146.096H714.174ZM576.195 208.096H652.174V206.096H576.195V208.096ZM516.195 412.692V268.096H514.195V412.692H516.195ZM398.465 474.692H454.195V472.692H398.465V474.692ZM338.465 750.155V534.692H336.465V750.155H338.465ZM613.928 810.155H398.465V812.155H613.928V810.155ZM673.928 615.683V750.155H675.928V615.683H673.928ZM801.782 553.683H735.928V555.683H801.782V553.683ZM861.782 311.147V493.683H863.782V311.147H861.782ZM950.398 565.369V311.147H948.398V565.369H950.398ZM863.782 787.276V651.985H861.782V787.276H863.782ZM1041.38 847.276H923.782V849.276H1041.38V847.276ZM1101.38 669.677V787.276H1103.38V669.677H1101.38ZM438.447 266.839H237.608V268.839H438.447V266.839ZM498.447 6V206.839H500.447V6H498.447ZM237.608 -54H438.447V-56H237.608V-54ZM177.608 206.839V5.99988H175.608V206.839H177.608ZM789.409 1018.26H707.806V1020.26H789.409V1018.26ZM849.409 876.654V958.257H851.409V876.654H849.409ZM707.806 816.654H789.408V814.654H707.806V816.654ZM647.806 958.257V876.654H645.806V958.257H647.806ZM707.806 814.654C673.564 814.654 645.806 842.412 645.806 876.654H647.806C647.806 843.517 674.669 816.654 707.806 816.654V814.654ZM851.409 876.654C851.409 842.412 823.65 814.654 789.408 814.654V816.654C822.546 816.654 849.409 843.517 849.409 876.654H851.409ZM707.806 1018.26C674.669 1018.26 647.806 991.394 647.806 958.257H645.806C645.806 992.498 673.564 1020.26 707.806 1020.26V1018.26ZM789.409 1020.26C823.65 1020.26 851.409 992.498 851.409 958.257H849.409C849.409 991.394 822.546 1018.26 789.409 1018.26V1020.26ZM237.608 -56C203.366 -56 175.608 -28.2417 175.608 5.99988H177.608C177.608 -27.1372 204.471 -54 237.608 -54V-56ZM500.447 6C500.447 -28.2417 472.689 -56 438.447 -56V-54C471.584 -54 498.447 -27.1371 498.447 6H500.447ZM237.608 266.839C204.47 266.839 177.608 239.977 177.608 206.839H175.608C175.608 241.081 203.366 268.839 237.608 268.839V266.839ZM438.447 268.839C472.689 268.839 500.447 241.081 500.447 206.839H498.447C498.447 239.977 471.584 266.839 438.447 266.839V268.839ZM1041.38 849.276C1075.62 849.276 1103.38 821.517 1103.38 787.276H1101.38C1101.38 820.413 1074.52 847.276 1041.38 847.276V849.276ZM861.782 787.276C861.782 821.517 889.54 849.276 923.782 849.276V847.276C890.645 847.276 863.782 820.413 863.782 787.276H861.782ZM906.09 607.677C881.619 607.677 861.782 627.514 861.782 651.985H863.782C863.782 628.619 882.724 609.677 906.09 609.677L906.09 607.677ZM948.398 565.369C948.398 588.735 929.456 607.677 906.09 607.677L906.09 609.677C930.56 609.677 950.398 589.84 950.398 565.369H948.398ZM906.09 268.839C929.456 268.839 948.398 287.781 948.398 311.147H950.398C950.398 286.677 930.56 266.839 906.09 266.839V268.839ZM863.782 311.147C863.782 287.781 882.724 268.839 906.09 268.839V266.839C881.619 266.839 861.782 286.677 861.782 311.147H863.782ZM801.782 555.683C836.024 555.683 863.782 527.924 863.782 493.683H861.782C861.782 526.82 834.919 553.683 801.782 553.683V555.683ZM675.928 615.683C675.928 582.546 702.791 555.683 735.928 555.683V553.683C701.686 553.683 673.928 581.441 673.928 615.683H675.928ZM613.928 812.155C648.169 812.155 675.928 784.396 675.928 750.155H673.928C673.928 783.292 647.065 810.155 613.928 810.155V812.155ZM336.465 750.155C336.465 784.396 364.223 812.155 398.465 812.155V810.155C365.328 810.155 338.465 783.292 338.465 750.155H336.465ZM398.465 472.692C364.223 472.692 336.465 500.45 336.465 534.692H338.465C338.465 501.555 365.328 474.692 398.465 474.692V472.692ZM514.195 412.692C514.195 445.829 487.333 472.692 454.195 472.692V474.692C488.437 474.692 516.195 446.933 516.195 412.692H514.195ZM576.195 206.096C541.954 206.096 514.195 233.854 514.195 268.096H516.195C516.195 234.959 543.058 208.096 576.195 208.096V206.096ZM712.174 146.096C712.174 179.233 685.311 206.096 652.174 206.096V208.096C686.415 208.096 714.174 180.338 714.174 146.096H712.174ZM774.174 -56C739.932 -56 712.174 -28.2417 712.174 6H714.174C714.174 -27.1371 741.036 -54 774.174 -54V-56ZM1037.01 6C1037.01 -28.2417 1009.25 -56 975.013 -56V-54C1008.15 -54 1035.01 -27.1371 1035.01 6H1037.01ZM1097.01 258.965C1063.88 258.965 1037.01 232.102 1037.01 198.965H1035.01C1035.01 233.207 1062.77 260.965 1097.01 260.965V258.965ZM1299.11 320.965C1299.11 286.724 1271.35 258.965 1237.11 258.965V260.965C1270.25 260.965 1297.11 287.828 1297.11 320.965H1299.11ZM1163.38 607.677C1129.14 607.677 1101.38 635.435 1101.38 669.677H1103.38C1103.38 636.54 1130.24 609.677 1163.38 609.677V607.677ZM1237.11 609.677C1271.35 609.677 1299.11 581.919 1299.11 547.677H1297.11C1297.11 580.814 1270.25 607.677 1237.11 607.677V609.677ZM261.842 758.161C294.979 758.161 321.842 785.023 321.842 818.16H323.842C323.842 783.919 296.083 756.161 261.842 756.161V758.161ZM1.0022 818.161C1.0022 785.023 27.865 758.161 61.0021 758.161V756.161C26.7605 756.161 -0.997803 783.919 -0.997803 818.161H1.0022ZM261.842 1081C296.083 1081 323.842 1053.24 323.842 1019H321.842C321.842 1052.14 294.979 1079 261.842 1079V1081ZM61.0022 1079C27.8651 1079 1.0022 1052.14 1.0022 1019H-0.997803C-0.997803 1053.24 26.7605 1081 61.0022 1081V1079Z" fill="url(#paint0_linear_2032_772)" mask="url(#path-1-inside-1_2032_772)"/>
<defs>
<linearGradient id="paint0_linear_2032_772" x1="850.971" y1="928.142" x2="850.971" y2="102.483" gradientUnits="userSpaceOnUse">
<stop stop-color="#7579FF"/>
<stop offset="1" stop-color="#1B1F3B"/>
</linearGradient>
</defs>
</svg>
