<svg width="896" height="1457" viewBox="0 0 896 1457" fill="none" xmlns="http://www.w3.org/2000/svg">
<path d="M322 -380V-121.793C322 -102.292 337.809 -86.4828 357.31 -86.4828H606.69C626.191 -86.4828 642 -70.6738 642 -51.1725V198.207C642 217.708 657.809 233.517 677.31 233.517H926.69C946.191 233.517 962 249.326 962 268.828V518.207C962 537.708 977.809 553.517 997.31 553.517H1246.69C1266.19 553.517 1282 569.326 1282 588.827V838.207C1282 857.708 1297.81 873.517 1317.31 873.517H1575.52M2 -380V-121.793C2 -102.292 17.809 -86.4828 37.3103 -86.4828H286.69C306.191 -86.4828 322 -70.6738 322 -51.1725V198.207C322 217.708 337.809 233.517 357.31 233.517H606.69C626.191 233.517 642 249.326 642 268.828V518.207C642 537.708 626.191 553.517 606.69 553.517H357.31C337.809 553.517 322 537.708 322 518.207V264.414L321.691 262.328C319.322 246.335 305.746 234.393 289.581 234.082L260.207 233.517H37.3103C17.809 233.517 2 249.326 2 268.828V518.207C2 537.708 17.809 553.517 37.3103 553.517H288.897L297.279 554.076C311.19 555.003 322 566.558 322 580.5V607.586M322 580V838.207C322 857.708 337.809 873.517 357.31 873.517H606.69C626.191 873.517 642 889.326 642 908.827V1158.21C642 1177.71 657.809 1193.52 677.31 1193.52H926.69C946.191 1193.52 962 1209.33 962 1228.83V1478.21C962 1497.71 977.809 1513.52 997.31 1513.52H1246.69C1266.19 1513.52 1282 1529.33 1282 1548.83V1798.21C1282 1817.71 1297.81 1833.52 1317.31 1833.52H1575.52" stroke="url(#paint0_linear_2466_257)" stroke-opacity="0.8" stroke-width="3.31034"/>
<defs>
<linearGradient id="paint0_linear_2466_257" x1="2" y1="-380" x2="1540.21" y2="1523.45" gradientUnits="userSpaceOnUse">
<stop offset="0.0819437" stop-color="#F7F7F7"/>
<stop offset="0.208333" stop-color="#12C2E9"/>
<stop offset="0.526042" stop-color="#C471ED"/>
<stop offset="0.784375" stop-color="#F64F59"/>
</linearGradient>
</defs>
</svg>
